<?xml version="1.0" standalone="no"?>
<!DOCTYPE svg PUBLIC "-//W3C//DTD SVG 20010904//EN"
 "http://www.w3.org/TR/2001/REC-SVG-20010904/DTD/svg10.dtd">
<svg version="1.0" xmlns="http://www.w3.org/2000/svg"
 width="500.000000pt" height="261.000000pt" viewBox="0 0 500.000000 261.000000"
 preserveAspectRatio="xMidYMid meet">

<g transform="translate(0.000000,261.000000) scale(0.100000,-0.100000)"
fill="#000000" stroke="none">
<path d="M4210 2540 c-26 -26 -27 -49 -1 -26 28 26 84 32 104 11 23 -22 21
-38 -8 -81 -64 -94 -35 -183 77 -240 26 -13 115 -43 196 -65 223 -61 267 -85
303 -164 25 -54 23 -110 -5 -172 -27 -57 -92 -113 -133 -113 -12 0 -23 -4 -23
-10 0 -25 78 0 143 46 81 58 109 162 66 250 -44 93 -142 147 -365 204 -167 42
-228 70 -250 112 -20 39 -18 62 16 125 36 67 37 92 7 121 -31 29 -99 30 -127
2z"/>
<path d="M3557 2372 c-54 -56 -72 -169 -42 -268 17 -57 19 -94 5 -94 -5 0 -16
15 -24 34 -21 51 -86 85 -86 45 0 -21 127 -163 184 -206 59 -44 147 -93 194
-107 19 -6 22 -4 22 18 0 14 10 33 26 45 21 16 23 23 15 40 -6 11 -14 48 -18
81 -7 68 -28 105 -55 95 -26 -10 -31 -40 -17 -96 16 -63 6 -76 -45 -59 -77 25
-135 116 -143 224 -5 51 0 77 27 154 26 74 30 96 20 107 -18 22 -33 19 -63
-13z"/>
<path d="M3770 2323 c-75 -29 -121 -112 -128 -229 -3 -62 0 -89 13 -117 30
-64 42 -54 41 36 -1 97 17 142 90 226 38 42 45 57 37 70 -11 18 -30 23 -53 14z"/>
<path d="M4126 2228 c-9 -12 -16 -32 -16 -43 1 -20 1 -20 12 0 16 30 39 45 68
45 38 0 60 -29 60 -78 0 -85 56 -117 263 -152 149 -26 192 -43 206 -80 11 -32
-4 -44 -42 -35 -33 8 -47 -6 -61 -62 -7 -28 -18 -59 -24 -69 -10 -16 -11 -12
-12 23 0 23 5 45 10 48 15 9 12 25 -4 25 -19 0 -66 -57 -66 -81 0 -10 -4 -19
-10 -19 -15 0 -12 33 6 59 16 22 15 23 -2 19 -12 -2 -31 -28 -50 -69 -29 -59
-61 -96 -108 -124 -20 -11 52 -19 184 -20 83 0 135 21 157 65 7 14 22 24 39
26 36 4 57 26 56 61 0 15 5 33 10 40 11 14 -3 46 -30 65 -10 7 -19 24 -19 37
-4 61 -75 96 -249 122 -192 29 -224 44 -224 106 0 41 -23 89 -49 103 -35 18
-88 12 -105 -12z m624 -432 c0 -2 -11 -1 -24 1 -16 3 -30 -3 -45 -18 -22 -24
-30 -14 -8 13 16 21 38 27 60 16 9 -5 17 -10 17 -12z m-2 -44 c4 -28 -24 -40
-44 -20 -14 13 -14 17 1 32 22 21 39 16 43 -12z m-67 -71 c-23 -42 -159 -65
-252 -42 -23 5 -25 8 -13 19 8 7 14 9 14 3 0 -5 14 -8 30 -7 17 1 30 -1 30 -4
0 -17 102 -2 147 22 26 15 49 27 51 27 1 1 -2 -7 -7 -18z"/>
<path d="M3191 2101 c-23 -15 -4 -40 36 -46 69 -12 91 -25 112 -69 84 -181 92
-195 141 -239 48 -43 98 -66 177 -82 31 -6 32 -5 25 15 -5 14 -26 29 -56 41
-73 27 -112 58 -158 124 l-42 60 75 -70 c59 -56 87 -75 132 -89 32 -10 64 -15
72 -12 13 5 13 3 0 -17 -8 -13 -11 -28 -6 -35 6 -10 10 -9 14 7 3 12 16 25 29
30 14 6 17 10 8 11 -8 1 -4 5 10 9 24 7 23 8 -15 20 -137 45 -274 147 -353
264 -17 26 -46 56 -64 67 -35 21 -112 27 -137 11z"/>
<path d="M3916 2035 c-13 -34 -5 -62 24 -90 16 -15 32 -42 36 -59 9 -46 32
-66 74 -66 44 0 74 -19 69 -45 -6 -29 -28 -29 -39 0 -12 32 -34 28 -38 -7 -5
-40 43 -74 117 -82 33 -4 63 -11 66 -16 3 -6 -1 -7 -10 -4 -51 20 -129 -33
-107 -73 8 -14 5 -21 -19 -35 -39 -24 -41 -79 -4 -104 25 -17 25 -17 5 -31
-64 -45 33 -133 147 -133 26 0 72 7 101 14 45 12 52 12 52 0 0 -17 12 -18 28
-2 9 9 12 9 12 0 0 -9 5 -10 18 -4 9 5 23 7 31 4 8 -2 21 4 29 14 13 18 14 18
7 -3 -7 -25 4 -30 24 -10 10 10 11 8 5 -7 -6 -16 -4 -18 11 -12 11 4 16 4 13
0 -4 -3 0 -13 8 -21 11 -12 13 -28 8 -73 -11 -98 29 -171 102 -185 36 -6 104
16 104 35 0 7 -3 10 -7 8 -5 -2 -21 -10 -36 -18 -25 -12 -30 -11 -55 7 -38 28
-38 65 -2 157 36 90 36 110 -3 114 -23 3 -27 0 -27 -22 0 -14 -9 -48 -20 -76
-11 -28 -21 -65 -21 -83 -2 -27 -2 -28 -6 -7 -3 14 3 58 13 99 l19 73 -30 25
c-51 42 -89 63 -115 63 -14 0 -72 -11 -130 -25 -127 -30 -171 -31 -193 -7 -21
23 -21 36 -1 56 24 24 54 20 54 -6 0 -18 -2 -20 -10 -8 -5 8 -12 11 -16 7 -12
-11 13 -30 30 -24 19 7 21 38 4 55 -7 7 -24 12 -39 12 -15 0 -37 9 -50 19 -20
16 -22 23 -14 47 12 34 61 57 75 34 10 -16 4 -30 -11 -30 -6 0 -7 5 -4 10 3 6
1 10 -4 10 -16 0 -13 -27 4 -34 18 -7 48 21 39 37 -4 7 -14 20 -21 29 -27 31
15 89 53 74 17 -6 19 -32 2 -42 -6 -4 -8 -3 -4 4 3 6 2 13 -3 16 -5 4 -12 2
-15 -3 -8 -13 21 -34 39 -27 20 7 19 42 0 58 -9 7 -24 20 -33 29 -9 9 -25 19
-34 22 -21 7 -44 51 -53 100 l-7 37 31 -6 c17 -4 51 -1 76 5 36 9 52 8 79 -3
42 -17 56 -42 56 -96 0 -51 14 -45 42 17 37 83 -3 151 -104 179 -63 18 -79 34
-58 60 19 21 -3 43 -28 28 -23 -15 -27 -67 -8 -84 9 -7 16 -21 16 -32 0 -35
-43 -18 -63 25 -12 26 -28 42 -48 49 -26 9 -30 14 -25 34 8 32 -21 45 -40 19
-21 -28 -17 -44 16 -73 17 -15 30 -34 30 -44 0 -17 -4 -19 -30 -22 -6 -1 -16
10 -23 24 -8 16 -29 30 -57 40 -64 21 -70 27 -67 63 2 34 -25 51 -37 22z m464
-180 c34 -17 50 -43 49 -77 0 -19 -2 -16 -12 11 -17 48 -67 73 -132 67 -36 -4
-43 -3 -25 3 40 14 89 12 120 -4z m-220 -225 c-16 -16 -18 -25 -10 -40 8 -16
8 -20 -4 -20 -13 0 -26 20 -26 40 0 14 30 40 46 40 10 0 9 -5 -6 -20z m-51
-101 c-11 -11 -18 -27 -15 -35 20 -49 20 -47 -2 -35 -27 15 -30 65 -4 80 30
18 43 12 21 -10z m23 -115 c-24 -17 -29 -43 -10 -62 9 -9 8 -12 -4 -12 -21 0
-40 25 -36 47 2 10 14 23 28 30 35 18 49 16 22 -3z"/>
<path d="M3204 1915 c-9 -22 3 -34 41 -41 46 -8 69 -37 93 -119 27 -91 70
-154 135 -199 56 -38 158 -69 210 -64 l32 4 -25 11 c-14 6 -31 18 -38 26 -7 8
-29 18 -49 22 -70 13 -151 64 -175 110 -7 13 1 9 23 -12 70 -66 174 -93 203
-52 13 20 14 19 9 -19 -4 -33 -2 -42 18 -56 13 -9 30 -16 39 -16 12 1 12 3 -2
11 -32 18 -41 48 -23 75 14 21 14 24 0 24 -8 0 -15 4 -15 8 0 4 -31 12 -69 18
-121 19 -152 41 -222 155 -34 55 -71 106 -82 114 -28 20 -96 20 -103 0z"/>
<path d="M3082 1868 c10 -15 27 -33 36 -39 16 -10 16 -10 0 -5 -95 29 -99 29
-223 -17 l-40 -15 45 -21 45 -21 -43 0 c-52 0 -86 -17 -131 -64 -19 -20 -41
-36 -48 -36 -7 0 -13 -4 -13 -9 0 -11 62 -23 86 -16 11 3 0 -3 -23 -14 -45
-21 -66 -46 -84 -101 -7 -19 -19 -43 -27 -52 -14 -17 -13 -18 16 -18 45 0 89
43 127 124 26 56 47 82 97 124 99 84 199 118 352 121 38 1 39 1 21 21 -10 11
-28 20 -40 20 -12 0 -33 8 -46 19 -15 11 -45 20 -76 22 l-51 4 20 -27z"/>
<path d="M2010 1884 c0 -3 10 -20 22 -37 l23 -32 -39 30 c-35 26 -48 30 -108
30 -73 0 -79 -6 -34 -39 23 -17 43 -21 114 -22 48 -1 113 -8 145 -16 31 -9 57
-13 57 -10 0 3 8 -2 18 -10 9 -8 40 -27 67 -43 28 -15 68 -48 90 -75 22 -26
43 -45 48 -43 4 2 7 -5 7 -17 0 -11 11 -42 25 -68 14 -26 25 -54 25 -62 1 -9
6 -5 15 10 14 25 14 24 9 -10 -6 -36 22 -154 34 -146 4 2 8 -32 9 -77 3 -85 8
-101 24 -77 7 11 8 7 3 -13 -9 -39 5 -159 18 -155 6 2 20 20 30 39 15 26 18
44 13 79 -4 25 -7 58 -6 74 1 26 0 28 -16 15 -13 -11 -15 -11 -9 -1 4 7 5 49
1 93 l-7 80 -26 -23 c-15 -13 -20 -15 -13 -6 13 17 12 31 -5 146 -6 39 -8 42
-23 28 -14 -13 -16 -11 -18 21 -1 19 -10 46 -19 61 -10 15 -21 40 -24 57 l-7
30 -16 -35 -16 -35 -1 31 c0 19 -13 48 -32 74 -18 24 -38 51 -44 62 -10 17
-12 17 -18 3 -3 -9 -6 -26 -6 -38 0 -18 -4 -15 -17 12 -10 19 -30 41 -46 50
-16 9 -43 27 -60 41 l-30 25 6 -33 7 -33 -26 20 c-32 25 -144 60 -144 45z"/>
<path d="M1717 1846 c-42 -10 -46 -13 -32 -26 13 -14 10 -15 -25 -16 -22 -1
-51 -9 -64 -18 -14 -9 -33 -16 -42 -16 -13 0 -14 -3 -4 -15 10 -12 9 -15 -7
-15 -10 0 -40 -13 -66 -30 -26 -16 -52 -30 -58 -30 -24 0 5 -20 29 -21 22 0
19 -3 -16 -14 -25 -7 -59 -30 -82 -54 l-40 -41 28 0 27 0 -30 -16 c-36 -17
-102 -114 -79 -114 12 0 11 -6 -5 -26 -12 -15 -21 -37 -21 -50 0 -20 5 -24 29
-24 27 0 31 5 45 52 8 29 13 54 11 57 -3 2 4 10 14 17 10 8 30 33 44 57 24 41
130 157 144 157 3 0 21 12 40 26 29 22 66 41 173 87 14 6 56 18 95 27 l70 16
-46 22 c-50 24 -62 25 -132 8z"/>
<path d="M3851 1831 c-21 -21 -29 -71 -12 -71 5 0 16 -3 25 -6 12 -5 16 1 16
23 0 16 5 34 10 39 8 8 6 15 -4 23 -12 10 -19 8 -35 -8z"/>
<path d="M3901 1798 c-10 -26 3 -58 23 -58 19 0 26 68 8 75 -21 8 -22 7 -31
-17z"/>
<path d="M3960 1775 c0 -30 3 -35 24 -35 22 0 22 2 12 35 -6 19 -17 35 -23 35
-8 0 -13 -14 -13 -35z"/>
<path d="M4233 1797 c-48 -12 -54 -27 -20 -54 13 -10 29 -27 35 -38 10 -17 11
-16 6 11 -5 24 -1 37 15 53 21 21 77 29 97 14 5 -5 1 0 -9 10 -21 19 -58 20
-124 4z"/>
<path d="M1890 1789 c-88 -9 -230 -64 -317 -122 -120 -80 -226 -214 -243 -308
-7 -36 -7 -36 41 -51 30 -10 51 -12 57 -6 6 6 15 2 25 -12 13 -18 19 -20 36
-11 17 10 21 9 21 -3 0 -8 -5 -18 -11 -21 -10 -7 16 -45 31 -45 4 0 10 25 13
56 20 197 257 381 462 360 146 -15 236 -101 270 -259 7 -34 14 -56 14 -49 1
19 39 52 60 52 10 0 22 -7 25 -16 3 -8 2 -13 -3 -10 -11 7 -46 -19 -46 -36 -1
-7 4 -16 10 -20 5 -4 0 -8 -12 -8 -12 0 -24 6 -26 13 -10 23 -7 -28 8 -158 18
-149 44 -269 75 -339 21 -47 22 -48 34 -25 12 25 56 39 56 19 0 -6 -4 -9 -9
-5 -6 3 -15 -3 -21 -14 -7 -14 -7 -22 1 -27 9 -5 7 -11 -4 -19 -15 -11 -14
-16 14 -56 46 -65 48 -65 38 -13 -11 59 1 130 37 220 l26 66 -22 152 c-29 198
-60 316 -109 421 -95 203 -285 301 -531 274z m86 -21 c5 -8 2 -9 -10 -5 -9 4
-14 3 -11 -2 3 -5 1 -12 -4 -15 -13 -8 -7 -36 9 -46 12 -7 11 -10 -3 -16 -23
-8 -47 13 -47 42 0 40 48 71 66 42z m-146 -28 c-8 -15 -6 -24 10 -40 11 -11
25 -20 30 -20 6 0 10 -4 10 -10 0 -14 -43 -12 -62 3 -8 6 -17 19 -20 27 -8 22
9 60 27 60 13 0 14 -4 5 -20z m334 -5 c5 -14 -5 -20 -27 -16 -5 1 -6 -3 -3 -8
4 -5 2 -12 -4 -16 -7 -4 -7 -12 0 -25 14 -26 -9 -39 -27 -15 -19 27 -16 43 12
70 28 29 40 31 49 10z m-94 -5 c0 -9 -15 -14 -33 -11 -5 1 -6 -3 -3 -8 4 -5 2
-12 -4 -16 -7 -4 -7 -12 0 -25 13 -25 -4 -35 -24 -14 -20 19 -20 34 0 62 15
22 64 31 64 12z m-425 -51 c-13 -19 4 -59 25 -59 11 0 20 -4 20 -10 0 -14 -54
-12 -68 2 -23 23 -8 78 21 78 4 0 5 -5 2 -11z m90 1 c-11 -17 31 -48 59 -43
14 3 26 1 26 -5 0 -23 -77 -31 -98 -10 -18 18 -15 68 4 68 8 0 13 -4 9 -10z
m505 -27 c0 -9 -3 -13 -6 -10 -9 9 -49 -20 -49 -36 -1 -6 4 -15 10 -19 5 -4 0
-8 -12 -8 -32 0 -32 52 -1 74 29 21 58 20 58 -1z m107 -53 c1 -14 0 -19 -3
-12 -3 6 -10 10 -15 6 -5 -3 -9 1 -9 8 0 8 -5 6 -11 -5 -6 -9 -14 -15 -19 -12
-5 3 -7 -4 -5 -15 4 -22 4 -23 -19 -14 -39 15 6 77 52 72 21 -2 28 -9 29 -28z
m-832 -20 c-6 -10 29 -50 45 -50 6 0 10 -4 10 -10 0 -5 -16 -10 -35 -10 -24 0
-37 6 -45 20 -14 25 -4 60 16 60 8 0 13 -4 9 -10z m90 -9 c-10 -17 33 -33 55
-21 16 9 20 8 20 -5 0 -18 -38 -35 -60 -27 -26 9 -41 34 -29 49 13 15 23 18
14 4z m744 -53 c0 -13 -3 -17 -6 -11 -8 21 -52 -15 -48 -38 3 -15 -1 -19 -13
-17 -44 9 -4 88 45 88 17 0 23 -5 22 -22z m-926 -36 c-16 -10 18 -50 40 -46
10 1 16 -3 14 -9 -5 -17 -55 -21 -73 -6 -17 14 -19 55 -1 62 19 8 33 8 20 -1z
m92 -1 c-10 -18 33 -33 56 -21 18 10 20 9 17 -6 -4 -24 -31 -38 -60 -31 -28 7
-42 39 -25 56 14 14 20 14 12 2z m920 -31 c4 -6 4 -19 0 -28 -6 -16 -7 -16
-20 1 -7 10 -16 19 -19 20 -9 3 -34 -37 -29 -47 3 -5 0 -7 -8 -4 -21 7 -23 40
-3 55 21 16 70 17 79 3z m-1070 -71 c-4 -6 2 -13 14 -16 12 -3 21 -10 21 -16
0 -6 6 -3 13 8 10 13 16 15 21 6 13 -20 -15 -42 -47 -39 -38 4 -56 30 -38 52
15 18 26 22 16 5z m155 -19 c16 9 20 8 20 -5 0 -18 -36 -34 -63 -27 -23 6 -32
26 -22 50 6 15 8 15 25 -6 16 -19 23 -21 40 -12z m941 -40 c23 -13 27 -63 4
-54 -8 4 -12 10 -9 15 3 5 2 9 -3 10 -4 0 -16 2 -25 4 -10 2 -20 -1 -24 -6 -6
-11 -24 -2 -24 12 0 9 34 27 53 28 5 1 17 -4 28 -9z m-63 -58 c7 -5 10 -16 6
-26 -5 -13 -9 -14 -15 -5 -6 10 -13 9 -33 -5 -15 -9 -24 -21 -21 -26 4 -6 -1
-10 -9 -10 -32 0 -12 60 24 73 22 8 34 8 48 -1z m86 -38 c9 -3 16 -13 16 -21
0 -10 -8 -13 -30 -10 -28 5 -57 -13 -43 -26 3 -4 1 -7 -6 -7 -21 0 -24 30 -6
50 18 20 41 25 69 14z m-59 -84 c4 -6 4 -19 0 -28 -6 -16 -7 -16 -20 1 -7 10
-16 19 -19 20 -8 3 -35 -37 -30 -45 3 -4 -2 -5 -10 -2 -21 8 -20 41 2 53 22
14 69 14 77 1z m92 -56 c3 -8 0 -21 -7 -27 -10 -9 -11 -9 -6 1 4 6 2 13 -3 13
-6 1 -17 2 -23 3 -16 2 -38 -26 -31 -38 3 -5 0 -7 -8 -4 -19 6 -23 36 -9 53
17 20 79 19 87 -1z m-68 -73 c8 -5 11 -16 8 -26 -4 -10 -12 -13 -19 -8 -23 14
-38 11 -52 -9 -19 -27 -40 -15 -25 15 20 37 56 48 88 28z m81 -65 c0 -8 -6
-14 -12 -13 -32 1 -48 -4 -45 -14 1 -6 -4 -14 -10 -16 -18 -7 -16 23 3 41 19
20 64 21 64 2z m-92 -23 c2 -8 -6 -13 -21 -13 -14 0 -27 -7 -31 -15 -6 -18
-26 -20 -26 -3 0 36 67 63 78 31z m57 -53 c3 -6 -4 -10 -18 -10 -25 0 -52 -22
-40 -33 3 -4 1 -7 -5 -7 -16 0 -15 33 0 48 15 15 54 16 63 2z"/>
<path d="M3075 1766 c-145 -46 -251 -163 -269 -296 -6 -41 -5 -43 7 -20 7 14
21 26 32 28 13 2 16 0 8 -5 -15 -11 7 -59 25 -55 7 1 12 -5 12 -13 0 -18 -50
-21 -68 -3 -24 24 -12 -65 22 -167 19 -55 35 -95 35 -88 1 6 10 9 20 6 13 -3
21 2 26 16 3 12 10 19 14 16 5 -2 12 23 15 57 16 141 105 239 245 269 39 8 62
7 108 -4 l58 -15 -28 24 c-22 19 -40 24 -81 24 -28 0 -57 5 -63 11 -6 6 -22
17 -35 23 -29 14 -37 66 -13 86 12 10 19 10 27 2 8 -8 7 -13 -5 -18 -13 -5
-14 -10 -5 -30 11 -24 12 -24 32 -6 37 32 76 53 87 46 6 -4 26 -10 44 -14 l32
-7 -28 71 -27 71 -94 2 c-54 1 -110 -3 -133 -11z m183 -16 c3 -7 0 -10 -6 -6
-16 9 -25 -11 -18 -40 4 -16 11 -22 19 -17 8 4 7 1 -2 -10 -27 -33 -68 12 -51
57 13 35 49 45 58 16z m-157 -17 c9 -11 10 -14 2 -9 -18 10 -39 -5 -39 -29 1
-24 17 -45 30 -37 5 3 6 0 2 -6 -11 -19 -44 -14 -56 7 -15 29 -12 49 10 71 24
24 34 25 51 3z m-124 -115 c9 -10 18 -17 22 -16 19 2 31 -3 26 -12 -13 -21
-64 -11 -81 15 -15 22 -15 30 -4 53 l14 27 4 -25 c2 -14 11 -33 19 -42z m108
-28 c-11 -18 15 -52 36 -47 12 3 19 0 19 -9 0 -23 -67 -18 -80 6 -14 25 -4 60
16 60 8 0 12 -4 9 -10z m-200 -17 c-3 -24 13 -43 36 -43 25 0 24 -17 -1 -25
-41 -13 -86 39 -60 70 17 20 29 19 25 -2z m95 -28 c-2 -11 52 -45 62 -39 4 3
8 1 8 -5 0 -14 -36 -24 -60 -16 -21 7 -36 46 -25 65 7 12 18 7 15 -5z m-45
-74 c-4 -21 18 -36 49 -32 11 2 17 -2 14 -11 -6 -17 -55 -23 -74 -7 -17 14
-19 55 -1 62 6 3 13 6 14 6 1 1 0 -8 -2 -18z m-11 -136 c9 13 15 15 20 6 18
-28 -47 -55 -80 -33 -16 11 -23 39 -12 50 6 6 18 1 34 -15 24 -24 26 -24 38
-8z m-41 -63 c-5 -22 21 -46 42 -38 9 3 15 0 15 -9 0 -22 -38 -28 -65 -11 -30
19 -34 62 -7 69 9 3 18 5 19 6 0 0 -1 -7 -4 -17z"/>
<path d="M4322 1753 c-7 -3 -17 -14 -23 -25 -22 -41 57 -82 80 -41 16 30 -24
77 -57 66z m48 -48 c0 -8 -6 -15 -14 -15 -17 0 -28 14 -19 24 12 12 33 6 33
-9z"/>
<path d="M3790 1736 c0 -2 7 -7 16 -10 8 -3 12 -2 9 4 -6 10 -25 14 -25 6z"/>
<path d="M3875 1710 c-3 -6 8 -23 26 -39 36 -33 34 -61 -5 -61 -16 0 -40 15
-65 41 -32 31 -47 40 -68 37 -20 -2 -29 -9 -31 -25 -4 -25 7 -30 26 -11 9 9
12 8 15 -3 17 -60 26 -76 56 -96 19 -13 46 -23 62 -23 41 0 59 -10 59 -32 0
-21 6 -21 -104 -2 -25 4 -35 2 -39 -10 -3 -8 -1 -19 5 -22 7 -4 14 -2 16 4 6
18 32 15 32 -3 0 -25 46 -65 75 -65 34 0 32 -16 -5 -29 -30 -10 -40 -34 -19
-46 6 -4 16 1 23 10 12 16 15 15 47 -13 19 -17 47 -34 62 -37 22 -6 25 -10 16
-21 -6 -8 -8 -21 -5 -31 6 -15 8 -15 23 0 15 14 19 14 46 0 36 -18 96 -13 133
12 34 22 19 38 -24 26 -51 -15 -130 10 -169 53 -34 37 -40 64 -22 98 9 16 7
24 -10 39 -39 36 -22 93 33 113 15 5 17 9 8 18 -18 18 -15 35 9 59 31 31 9 40
-82 33 -72 -6 -76 -5 -82 15 -5 22 -31 29 -42 11z"/>
<path d="M4722 1647 c-9 -10 -6 -17 8 -30 11 -9 20 -28 20 -42 0 -15 4 -24 10
-20 11 7 14 64 4 89 -7 19 -28 21 -42 3z"/>
<path d="M4653 1619 c-9 -9 -8 -18 7 -37 11 -14 20 -35 20 -48 0 -33 17 -30
24 4 13 58 -21 111 -51 81z"/>
<path d="M3233 1612 c-6 -4 -13 -16 -15 -27 -2 -15 2 -19 17 -18 64 8 98 -9
182 -89 85 -82 118 -101 192 -113 61 -10 166 3 190 24 20 17 20 17 -1 30 -14
9 -19 20 -15 37 2 13 0 24 -4 24 -12 0 -11 -54 1 -65 6 -7 -27 -9 -88 -7 -70
3 -108 9 -137 23 -22 11 -31 16 -20 13 83 -26 181 -27 213 -2 31 25 11 34 -80
34 -114 1 -153 15 -255 89 -66 48 -81 55 -122 55 -25 0 -51 -4 -58 -8z"/>
<path d="M1893 1600 c-15 -6 -23 -18 -23 -34 0 -45 10 -56 49 -56 36 0 37 2
37 33 0 17 4 40 8 50 7 14 3 17 -20 16 -16 0 -39 -4 -51 -9z"/>
<path d="M1991 1596 c-7 -8 -11 -29 -9 -47 2 -27 9 -34 32 -40 26 -7 33 -4 62
29 l32 37 -27 12 c-53 22 -77 25 -90 9z"/>
<path d="M4408 1593 c-21 -5 -22 -12 -7 -50 29 -78 81 -97 184 -68 l50 14 -78
-6 c-66 -5 -80 -3 -97 12 -21 19 -27 69 -10 80 6 4 8 11 5 16 -6 9 -18 10 -47
2z"/>
<path d="M4580 1588 c-19 -6 -52 -8 -73 -5 -20 3 -35 1 -32 -4 11 -16 70 -20
115 -6 52 15 43 29 -10 15z"/>
<path d="M1800 1567 c-29 -14 -39 -67 -17 -85 20 -17 80 7 71 28 -3 8 -8 27
-11 43 -6 31 -9 31 -43 14z"/>
<path d="M4317 1574 c-3 -4 3 -18 14 -32 13 -17 18 -34 14 -49 -6 -27 -2 -29
19 -7 9 9 16 32 16 55 0 36 -2 39 -28 39 -16 0 -32 -3 -35 -6z"/>
<path d="M2098 1543 c-27 -32 -28 -50 -3 -73 22 -21 25 -21 47 -6 12 9 30 16
40 16 26 0 22 12 -15 48 -38 37 -48 39 -69 15z"/>
<path d="M4257 1530 c4 -20 -1 -34 -15 -48 -20 -20 -20 -21 -2 -27 10 -3 26
-17 35 -31 16 -24 15 -27 -2 -46 -18 -21 -18 -21 17 -14 19 4 60 11 90 15 30
5 71 14 90 20 51 16 60 14 120 -25 50 -32 60 -35 113 -32 69 5 114 33 109 69
-3 30 -34 92 -47 96 -6 2 -10 -17 -10 -42 -1 -40 2 -45 22 -45 30 0 29 -14 -2
-34 -36 -24 -62 -20 -145 20 -67 32 -81 35 -130 30 -175 -20 -166 -20 -195 8
-27 27 -29 45 -11 87 5 12 1 18 -18 21 -23 5 -24 2 -19 -22z"/>
<path d="M1705 1506 c-28 -23 -29 -25 -15 -51 19 -36 38 -42 60 -19 17 18 17
21 1 56 l-16 38 -30 -24z"/>
<path d="M179 1491 c-20 -4 -51 -16 -70 -27 -31 -18 -34 -25 -37 -73 -3 -46
-1 -52 15 -49 10 2 19 14 21 28 12 89 156 52 230 -59 20 -31 57 -109 81 -173
47 -130 99 -201 150 -213 55 -12 66 -55 15 -55 -17 0 -53 27 -120 90 -68 64
-106 93 -135 100 -22 6 -44 8 -49 5 -16 -10 -11 -32 8 -37 12 -3 27 -28 41
-69 35 -94 110 -169 226 -223 49 -24 103 -48 119 -55 21 -9 26 -15 18 -23 -15
-15 -53 0 -169 66 -56 32 -110 56 -126 56 -42 0 -29 -22 20 -35 32 -8 58 -28
115 -87 85 -88 159 -129 238 -132 57 -1 69 7 46 33 -12 14 -31 19 -64 19 -26
1 -60 6 -76 12 -35 13 -118 72 -111 78 3 3 13 -2 23 -11 32 -29 106 -57 154
-57 l47 0 -34 73 -33 72 -60 7 c-106 12 -162 46 -225 138 -29 43 -28 43 29
-16 44 -45 72 -65 111 -78 47 -15 128 -24 138 -15 2 2 4 22 6 44 2 34 -4 49
-38 95 -46 63 -51 72 -131 240 -53 111 -68 133 -127 189 -45 42 -58 58 -38 47
60 -31 131 -123 203 -266 89 -174 136 -230 211 -247 59 -14 62 -13 79 47 18
64 12 114 -23 184 -23 45 -28 61 -15 49 10 -9 30 -40 44 -70 23 -47 26 -62 22
-123 -3 -38 -12 -80 -21 -93 -14 -22 -13 -25 45 -85 33 -34 62 -62 65 -62 2 0
13 21 25 46 15 34 18 58 14 93 -4 32 -3 40 3 26 17 -36 12 -109 -9 -150 -17
-33 -18 -44 -9 -62 18 -33 28 -29 51 24 31 69 22 147 -31 260 -46 100 -47 109
-25 141 16 23 12 42 -10 42 -29 0 -39 -54 -26 -147 13 -96 11 -173 -5 -173 -6
0 -12 53 -15 127 -7 158 -29 216 -116 299 -34 33 -54 60 -51 68 3 8 0 20 -8
26 -11 9 -17 6 -31 -15 -23 -35 -13 -97 32 -196 38 -85 42 -134 12 -153 -28
-17 -40 5 -48 87 -9 98 -43 158 -139 250 -133 127 -303 193 -432 168z"/>
<path d="M3180 1464 c0 -36 17 -64 40 -64 15 0 20 7 20 29 0 16 3 36 6 45 5
13 -1 16 -30 16 -32 0 -36 -3 -36 -26z"/>
<path d="M3277 1483 c-11 -11 -8 -58 5 -71 18 -18 38 -14 38 7 0 10 7 24 16
32 14 11 13 14 -8 25 -26 15 -42 17 -51 7z"/>
<path d="M4706 1477 c4 -11 -1 -29 -14 -46 l-21 -28 26 -12 c21 -10 28 -9 34
1 15 22 10 55 -11 79 -15 18 -18 19 -14 6z"/>
<path d="M2733 1446 c-30 -34 -33 -42 -33 -106 0 -37 -3 -75 -6 -84 -8 -21 8
-20 32 2 19 18 19 17 20 -27 2 -61 15 -141 23 -141 4 0 12 5 18 11 7 7 12 -5
17 -43 14 -103 14 -123 3 -137 -9 -10 -5 -18 18 -37 16 -13 32 -20 36 -16 4 4
10 31 13 60 7 52 6 53 -15 42 -21 -12 -21 -11 -5 11 9 13 16 35 16 49 0 35
-35 142 -43 134 -4 -4 -7 3 -7 16 0 28 -32 134 -42 138 -4 2 -5 9 -3 15 3 7 1
43 -3 81 l-7 69 -32 -37z"/>
<path d="M4640 1476 c0 -2 8 -10 18 -17 15 -13 16 -12 3 4 -13 16 -21 21 -21
13z"/>
<path d="M2170 1458 c-36 -13 -39 -26 -19 -68 19 -38 19 -38 56 -27 21 6 39
11 40 12 1 1 -3 18 -9 39 -14 44 -34 57 -68 44z"/>
<path d="M3108 1459 c-25 -14 -22 -52 6 -78 22 -20 27 -22 44 -9 18 12 18 16
6 33 -8 10 -14 29 -14 42 0 25 -14 29 -42 12z"/>
<path d="M1635 1437 c-16 -25 -16 -29 -1 -52 19 -29 37 -32 59 -7 14 16 13 20
-12 51 l-28 34 -18 -26z"/>
<path d="M3352 1448 c-17 -17 -15 -46 5 -56 13 -8 20 -4 30 15 16 32 17 30 -5
42 -13 7 -23 6 -30 -1z"/>
<path d="M1942 1413 c-10 -19 -4 -85 8 -93 4 -3 -2 -14 -13 -25 -20 -20 -20
-20 -8 5 12 24 11 24 -4 5 -8 -11 -13 -25 -11 -32 3 -7 -1 -10 -10 -6 -14 5
-34 -1 -86 -28 -10 -5 -26 -9 -35 -9 -10 0 -27 -8 -38 -17 -14 -11 -15 -14 -3
-10 10 4 18 -1 21 -14 4 -17 3 -18 -9 -8 -11 9 -14 8 -15 -2 0 -8 -4 -4 -9 8
-11 27 -91 86 -101 76 -13 -13 -28 -93 -18 -99 5 -3 9 1 9 9 0 8 6 20 14 26
11 9 12 7 9 -13 -6 -30 26 -51 60 -40 12 5 28 7 35 5 8 -1 21 4 30 11 10 8 35
23 57 33 22 11 42 23 43 28 2 4 11 7 21 7 9 0 22 5 29 12 9 9 13 7 17 -8 16
-48 25 -62 44 -67 30 -7 35 8 7 23 -23 12 -24 16 -17 81 2 14 97 46 150 51 20
2 -18 28 -41 28 -10 0 -30 -7 -44 -16 -13 -9 -27 -14 -31 -11 -3 4 8 14 26 24
17 10 31 21 31 26 0 4 7 7 16 7 8 0 12 5 9 10 -12 19 -53 10 -74 -17 -12 -14
-23 -24 -26 -21 -5 4 5 18 45 66 14 16 -31 17 -48 0 -9 -9 -12 -9 -12 0 0 18
-18 14 -28 -5z m-254 -220 c-2 -9 -9 -18 -16 -19 -7 -1 -8 0 -2 3 8 3 7 9 -1
19 -9 11 -8 14 6 14 10 0 15 -6 13 -17z"/>
<path d="M3401 1402 c-13 -24 9 -48 34 -38 20 7 19 19 -4 40 -19 17 -20 17
-30 -2z"/>
<path d="M3020 1371 l-20 -40 26 -20 c34 -27 70 -27 84 -1 9 18 6 25 -19 49
-17 16 -31 34 -31 40 0 24 -21 9 -40 -28z"/>
<path d="M1026 1355 c10 -42 40 -83 77 -102 23 -12 56 -15 123 -14 51 1 103
-3 118 -8 14 -6 28 -6 31 -1 6 9 -62 37 -110 44 -16 3 -2 3 33 1 36 -2 73 -10
88 -20 14 -9 35 -15 47 -12 18 3 11 9 -33 30 -44 21 -76 27 -160 32 -116 7
-182 26 -206 58 -15 21 -15 21 -8 -8z"/>
<path d="M1590 1360 c-14 -26 -8 -45 19 -59 17 -9 22 -8 32 10 9 18 7 25 -14
47 l-25 25 -12 -23z"/>
<path d="M3446 1361 c-3 -4 6 -19 19 -31 28 -26 31 -23 13 15 -12 26 -23 32
-32 16z"/>
<path d="M3800 1351 c-26 -11 -64 -15 -147 -14 -117 2 -143 -7 -129 -43 6 -16
8 -16 24 0 27 23 52 20 118 -15 51 -27 66 -30 114 -26 60 5 113 25 104 38 -3
5 1 9 8 9 8 0 6 5 -4 11 -10 5 -18 22 -18 37 0 21 -2 24 -10 12 -6 -10 -4 -22
5 -36 14 -21 13 -22 -41 -29 -67 -8 -78 -2 -25 13 24 8 41 20 44 32 7 27 -2
30 -43 11z"/>
<path d="M2190 1335 c-15 -18 -1 -91 18 -89 7 1 23 2 37 3 24 1 25 3 19 44 -4
23 -12 45 -18 49 -18 12 -43 9 -56 -7z"/>
<path d="M1564 1268 c-4 -15 -1 -26 12 -35 17 -12 20 -11 28 13 6 19 5 29 -5
35 -21 13 -27 11 -35 -13z"/>
<path d="M2980 1247 c0 -64 44 -94 104 -71 32 12 16 84 -18 84 -11 1 -32 7
-46 15 -37 21 -40 19 -40 -28z"/>
<path d="M4294 1257 c-21 -18 -50 -41 -64 -50 -27 -19 -95 -23 -105 -7 -18 30
-105 -11 -125 -59 -13 -33 0 -71 25 -71 21 0 29 19 11 26 -22 9 -20 30 5 48
20 13 26 13 60 -5 79 -40 149 -18 189 61 10 20 33 49 50 64 26 21 28 26 13 26
-11 0 -37 -15 -59 -33z"/>
<path d="M3895 1266 c-82 -26 -114 -59 -93 -98 12 -24 28 -23 28 1 0 24 17 30
55 19 46 -13 109 -10 131 7 19 14 19 14 -1 16 -11 0 -42 2 -68 4 -57 3 -76 15
-24 15 33 0 37 3 37 25 0 28 -7 29 -65 11z"/>
<path d="M3981 1265 c-1 -25 17 -45 39 -44 10 0 9 3 -5 8 -11 4 -23 19 -26 32
-6 21 -7 21 -8 4z"/>
<path d="M1040 1253 c0 -17 40 -68 68 -85 29 -18 43 -19 117 -13 83 7 111 17
80 29 -9 3 -37 4 -63 1 l-47 -4 40 9 c22 5 55 9 73 9 17 1 32 6 32 11 0 6 -44
10 -113 10 -91 0 -120 4 -150 19 -20 10 -37 17 -37 14z"/>
<path d="M2214 1216 c-3 -9 -3 -32 0 -51 6 -32 9 -35 34 -29 37 9 37 9 26 52
-7 27 -15 38 -32 40 -13 2 -25 -3 -28 -12z"/>
<path d="M1388 1194 c-34 -18 -48 -43 -48 -86 0 -48 36 -78 153 -126 84 -35
97 -38 97 -23 0 26 34 53 62 49 29 -4 33 -51 6 -56 -10 -2 -18 1 -18 7 0 6 7
11 16 11 13 0 14 3 4 14 -16 20 -40 9 -40 -20 0 -26 24 -44 82 -65 43 -15 43
-15 51 29 7 37 -4 43 -18 10 -6 -13 -18 -24 -28 -26 -17 -3 -17 -2 2 17 12 12
21 30 21 40 0 20 -126 140 -147 141 -6 0 -15 -9 -18 -20 -12 -39 -105 -66
-132 -39 -8 8 -13 8 -17 0 -13 -21 -28 -11 -22 13 5 20 2 25 -16 29 l-23 4 24
10 c16 6 20 12 13 17 -7 4 -12 14 -12 23 0 11 6 14 24 9 19 -5 25 -1 30 17 6
22 7 22 18 2 6 -11 17 -27 24 -35 18 -22 2 -49 -19 -31 -23 19 -33 -6 -11 -30
23 -25 49 -24 68 3 29 40 18 75 -34 111 -30 21 -56 21 -92 1z m222 -146 c0
-26 -29 -48 -63 -47 l-32 0 35 12 c30 10 35 17 38 46 3 25 6 31 13 20 5 -8 9
-22 9 -31z"/>
<path d="M1562 1188 c2 -13 8 -23 13 -23 6 0 11 10 13 23 2 15 -2 22 -13 22
-11 0 -15 -7 -13 -22z"/>
<path d="M2942 1150 c-7 -11 -23 -20 -38 -20 -24 0 -24 -2 -17 -37 13 -61 10
-208 -5 -225 -10 -13 -9 -21 11 -44 13 -16 36 -47 50 -69 15 -22 27 -32 27
-24 0 9 7 22 15 29 13 11 14 10 10 -3 -4 -9 3 -24 16 -36 27 -25 18 -38 -15
-23 l-24 11 15 -45 c8 -24 19 -44 24 -44 6 0 17 17 26 38 22 52 12 162 -27
287 -17 55 -37 128 -43 162 -11 56 -14 61 -25 43z m-15 -62 c1 -13 9 -28 18
-34 20 -15 19 -24 -3 -24 -22 0 -42 19 -42 40 0 12 17 40 25 40 0 0 2 -10 2
-22z m48 -112 c8 4 15 1 15 -5 0 -6 -12 -14 -26 -17 -30 -8 -60 16 -51 40 6
15 9 14 27 -4 11 -11 26 -17 35 -14z m25 -66 c0 -5 -11 -17 -25 -26 -29 -19
-65 -10 -65 17 0 17 3 18 20 7 16 -10 23 -10 37 4 16 17 33 16 33 -2z m-18
-91 c7 -1 21 -2 31 -2 26 0 21 -16 -8 -23 -45 -11 -75 16 -60 54 6 15 8 14 16
-5 4 -13 14 -24 21 -24z"/>
<path d="M1096 1130 c23 -39 77 -70 119 -69 44 1 78 13 83 27 3 10 -8 12 -45
9 -26 -3 -39 -3 -28 0 34 7 75 25 75 33 0 4 -38 5 -85 3 -70 -5 -89 -3 -111
12 l-27 18 19 -33z"/>
<path d="M3036 1143 l-48 -4 5 -35 c8 -49 23 -64 65 -64 54 0 72 22 60 70 -6
22 -16 39 -22 38 -6 -1 -33 -3 -60 -5z"/>
<path d="M2234 1078 c9 -53 12 -57 36 -51 14 4 20 14 20 33 0 44 -10 60 -37
60 -24 0 -25 -2 -19 -42z"/>
<path d="M2660 1050 c-26 -51 -26 -125 0 -168 11 -18 41 -47 67 -65 27 -17 72
-56 101 -86 29 -29 56 -51 59 -47 13 12 -17 54 -74 104 -138 121 -143 127 -37
53 76 -53 115 -92 134 -138 10 -23 28 -46 39 -52 19 -11 19 -10 9 21 -18 54
-63 112 -120 156 -117 90 -166 163 -153 229 8 44 0 42 -25 -7z"/>
<path d="M1260 1049 c-14 -6 -42 -8 -63 -6 -38 5 -38 5 -21 -14 9 -11 34 -24
55 -30 43 -13 112 -4 106 14 -4 13 -14 13 -62 3 -27 -6 -26 -5 5 7 35 14 43
30 18 34 -7 1 -24 -3 -38 -8z"/>
<path d="M2086 991 c-15 -23 -42 -47 -68 -60 -42 -20 -47 -20 -101 -6 -32 8
-61 14 -65 13 -4 -1 -20 4 -35 10 -39 16 -47 15 -48 -8 -1 -11 -2 -26 -3 -32
-1 -18 196 -41 206 -24 4 6 8 -1 8 -16 0 -15 -4 -30 -10 -33 -17 -10 -11 -71
8 -88 23 -21 39 -22 22 -2 -7 8 -9 15 -5 15 4 0 2 7 -5 15 -11 13 -8 21 16 48
16 17 34 35 39 39 21 16 106 -7 198 -53 27 -14 21 9 -12 42 -22 22 -39 29 -68
29 -21 0 -45 5 -53 10 -17 11 -10 12 93 13 l59 1 -23 19 c-19 15 -34 18 -74
13 -46 -6 -48 -5 -31 9 11 8 30 15 43 15 13 0 23 5 23 10 0 6 7 10 16 10 8 0
12 5 9 10 -9 14 -68 12 -85 -2 -8 -7 -4 -1 9 15 l24 27 -31 0 c-26 0 -36 -7
-56 -39z m-83 -96 c-3 -9 -8 -14 -10 -11 -3 3 -2 9 2 15 9 16 15 13 8 -4z"/>
<path d="M3105 1020 c-11 -4 -34 -12 -51 -17 -31 -8 -32 -9 -20 -43 14 -43 50
-59 95 -40 34 13 37 29 20 79 -12 33 -13 34 -44 21z"/>
<path d="M3709 998 l-32 -33 6 27 c6 21 4 26 -6 22 -30 -11 -40 -49 -29 -111
8 -45 7 -64 -4 -85 -20 -38 -18 -56 11 -94 14 -18 25 -38 25 -44 0 -6 12 -27
26 -46 20 -26 34 -34 58 -34 17 0 38 5 46 10 12 8 11 10 -7 10 -12 0 -25 5
-28 11 -4 5 -18 15 -32 20 -19 7 -24 14 -20 30 3 12 2 31 -3 44 -6 16 -4 29 6
44 21 29 113 81 145 81 15 0 32 6 39 14 6 8 24 16 38 18 l27 3 -23 13 c-40 23
-100 18 -130 -11 -32 -30 -72 -51 -72 -39 0 13 43 58 68 71 12 7 22 18 22 25
0 7 10 18 23 24 20 10 18 11 -18 11 -43 1 -85 -21 -85 -44 0 -8 -11 -27 -25
-42 l-25 -28 12 35 c6 19 17 42 24 51 8 8 14 25 14 37 0 11 8 26 18 31 15 9
13 10 -10 11 -17 0 -38 -12 -59 -32z m-22 -90 c-3 -7 -5 -2 -5 12 0 14 2 19 5
13 2 -7 2 -19 0 -25z m-13 -103 c-14 -21 -15 -31 -5 -51 9 -20 9 -25 -1 -22
-21 7 -22 70 -2 85 25 18 27 16 8 -12z"/>
<path d="M2257 1003 c-2 -5 0 -23 5 -40 6 -24 14 -33 29 -33 17 0 20 4 15 23
-3 12 -6 30 -6 40 0 17 -34 25 -43 10z"/>
<path d="M1316 986 l-28 -13 23 -6 c35 -10 54 -8 86 4 l28 12 -25 7 c-35 11
-51 10 -84 -4z"/>
<path d="M1234 930 c3 -40 15 -66 17 -39 1 15 20 -72 22 -104 1 -10 7 -15 13
-13 7 3 14 -8 18 -27 12 -73 19 -97 26 -97 4 0 13 -24 20 -54 9 -40 10 -62 2
-85 -13 -36 -3 -46 25 -26 26 18 37 55 17 55 -12 0 -12 4 -3 21 14 26 9 55
-25 144 -15 39 -40 108 -57 155 -26 77 -48 110 -71 110 -4 0 -6 -18 -4 -40z"/>
<path d="M1420 955 c-17 -21 -8 -28 15 -11 11 8 14 15 8 19 -6 4 -16 0 -23 -8z"/>
<path d="M1465 957 c15 -37 -68 -65 -95 -32 -15 19 -50 20 -50 2 0 -17 38
-129 78 -229 54 -134 51 -222 -10 -262 -65 -43 -200 -38 -286 10 -34 18 -48
21 -63 13 -11 -5 -17 -14 -14 -20 4 -5 1 -9 -4 -9 -20 0 -12 38 8 42 19 3 18
5 -7 35 -25 30 -29 31 -46 18 -16 -12 -17 -18 -8 -27 9 -9 12 -9 12 0 0 7 7
12 16 12 13 0 14 -2 0 -21 -19 -28 -5 -57 51 -110 71 -69 114 -84 233 -84 98
0 109 2 158 29 75 42 131 111 157 194 6 21 5 23 -13 13 -43 -23 -92 -1 -78 35
5 14 9 13 33 -6 17 -13 30 -17 36 -11 5 5 15 7 22 4 32 -11 34 323 3 354 -14
13 -16 12 -21 -9 -12 -46 -97 -60 -97 -16 0 15 3 17 18 9 14 -7 25 -6 40 5 26
18 19 39 -16 52 -15 6 -35 13 -45 17 -13 5 -16 3 -12 -8z m-75 -92 c0 -14 11
-18 53 -18 9 0 17 -3 17 -8 0 -15 -40 -30 -60 -24 -23 7 -44 41 -35 55 9 15
25 12 25 -5z m155 -66 c0 -31 -45 -55 -75 -39 -11 6 -20 20 -19 33 0 12 3 16
6 9 2 -6 9 -10 14 -6 5 3 9 0 9 -5 0 -6 6 -10 12 -8 18 3 37 30 31 41 -3 5 0
7 8 4 8 -3 14 -15 14 -29z m65 -64 c0 -39 -81 -60 -88 -22 -3 16 -1 17 16 8
15 -8 23 -6 36 8 9 10 13 21 9 25 -4 4 0 4 10 0 9 -3 17 -12 17 -19z m-131
-18 c24 15 33 6 20 -18 -12 -23 -61 -25 -79 -4 -18 21 -3 37 20 22 16 -9 24
-9 39 0z m91 -73 c0 -21 -42 -44 -68 -37 -13 3 -22 13 -22 24 0 16 3 17 19 7
15 -9 23 -9 35 1 9 7 13 17 10 22 -3 5 2 6 10 3 9 -3 16 -12 16 -20z m-43
-168 c12 17 13 16 13 -4 0 -15 -8 -24 -24 -28 -28 -7 -66 10 -66 30 0 24 13
25 39 5 24 -19 26 -19 38 -3z m-450 -47 c-12 -7 -16 -17 -12 -30 7 -22 -13
-26 -21 -4 -8 19 13 45 35 45 14 -1 14 -2 -2 -11z m349 2 c-8 -12 26 -39 47
-36 21 4 23 -13 2 -21 -29 -12 -65 5 -65 30 0 12 3 26 7 29 9 10 15 9 9 -2z
m-280 -33 c4 -6 3 -8 -3 -5 -14 9 -24 -18 -16 -39 4 -12 2 -15 -8 -12 -19 6
-24 35 -9 53 15 18 26 19 36 3z m57 -28 c-3 -11 0 -26 6 -34 17 -21 -4 -30
-23 -10 -16 15 -14 24 7 52 13 17 16 15 10 -8z m157 5 c0 -16 34 -38 44 -28 3
3 6 1 6 -5 0 -17 -19 -24 -46 -18 -19 5 -24 13 -24 36 0 17 5 30 10 30 6 0 10
-7 10 -15z m-84 -10 c-3 -8 4 -23 15 -34 24 -22 10 -37 -21 -21 -28 15 -26 70
3 70 5 0 7 -7 3 -15z"/>
<path d="M2593 947 c-22 -48 -16 -126 12 -163 23 -30 153 -114 177 -114 19 0
-16 32 -79 72 -35 22 -68 50 -74 62 -10 18 -8 18 17 -5 16 -15 49 -37 74 -49
25 -12 59 -33 77 -46 17 -13 38 -24 45 -24 16 1 -24 35 -117 100 -77 54 -106
94 -115 155 l-5 39 -12 -27z"/>
<path d="M2286 911 c-8 -12 14 -71 25 -71 16 0 20 25 10 53 -11 27 -25 35 -35
18z"/>
<path d="M3135 890 c-11 -5 -33 -9 -49 -9 -27 -1 -28 -2 -21 -38 8 -43 18 -53
58 -53 51 0 64 14 58 61 -6 45 -15 52 -46 39z"/>
<path d="M2545 807 c-10 -49 0 -105 23 -136 20 -27 96 -70 125 -71 23 0 22 17
-1 24 -33 11 -112 65 -112 77 0 8 7 6 18 -4 22 -20 102 -56 125 -57 29 0 19
18 -17 30 -45 14 -112 63 -127 92 -7 13 -16 37 -19 53 l-7 30 -8 -38z"/>
<path d="M2310 826 c0 -20 22 -56 35 -56 18 0 18 2 3 35 -9 20 -38 36 -38 21z"/>
<path d="M782 808 c-18 -18 -14 -56 6 -67 22 -12 48 2 37 19 -6 9 -9 9 -16 -1
-4 -7 -11 -10 -14 -7 -11 11 5 28 26 28 28 0 24 -36 -6 -56 l-24 -16 39 -77
c29 -59 46 -81 69 -90 35 -15 64 -8 91 22 28 29 25 54 -10 88 -23 23 -35 29
-52 23 -38 -11 -49 -24 -37 -45 12 -23 41 -26 33 -4 -4 10 0 15 11 15 27 0 15
-44 -13 -48 -57 -8 -72 61 -22 100 l31 24 -55 52 c-56 54 -73 61 -94 40z"/>
<path d="M3129 762 c-46 -3 -47 -4 -52 -40 -6 -45 12 -62 64 -62 37 0 38 1 45
46 3 25 3 49 -2 52 -5 4 -30 6 -55 4z"/>
<path d="M2350 750 c0 -15 22 -60 30 -60 16 0 18 15 4 41 -14 28 -34 39 -34
19z"/>
<path d="M3576 735 c-16 -12 -18 -19 -8 -40 14 -30 19 -30 52 -5 20 16 23 22
14 37 -15 23 -34 26 -58 8z"/>
<path d="M3500 692 c-22 -18 -22 -19 -5 -45 15 -23 20 -25 39 -15 43 22 46 28
29 54 -18 29 -33 30 -63 6z"/>
<path d="M2390 673 c1 -14 38 -53 50 -53 6 0 2 13 -10 30 -20 28 -40 40 -40
23z"/>
<path d="M2535 640 c7 -53 41 -101 88 -124 42 -19 57 -20 57 -3 0 6 -20 20
-44 30 -25 10 -50 25 -57 34 -9 10 1 7 29 -7 40 -21 79 -24 75 -6 -1 5 -23 17
-48 27 -52 20 -83 43 -96 74 -7 14 -8 6 -4 -25z"/>
<path d="M3200 648 c0 -12 -8 -42 -17 -66 -16 -43 -16 -45 3 -59 17 -12 19
-11 26 12 10 39 27 55 60 55 32 0 47 -23 28 -45 -13 -15 -30 -12 -30 6 0 6 5
7 11 3 7 -4 10 -1 7 7 -7 20 -42 17 -46 -4 -9 -45 68 -76 102 -41 37 37 14 76
-76 127 -57 33 -68 34 -68 5z"/>
<path d="M3416 649 c-25 -19 -26 -23 -12 -38 9 -10 16 -23 16 -29 0 -18 32
-14 60 8 24 18 25 20 8 47 -21 36 -38 39 -72 12z"/>
<path d="M2768 617 c-34 -28 -51 -71 -42 -111 8 -37 114 -238 123 -234 49 26
63 30 85 24 32 -8 46 -51 23 -73 -8 -9 -23 -13 -31 -10 -17 7 -22 37 -6 37 6
0 10 -4 10 -10 0 -5 5 -10 10 -10 15 0 12 26 -4 39 -11 9 -20 9 -35 2 -69 -37
3 -135 75 -102 43 19 48 47 27 157 -11 54 -23 98 -29 97 -5 -1 -23 -8 -41 -14
-45 -18 -109 2 -131 42 -10 16 -28 33 -42 37 l-25 9 28 15 c25 13 27 16 13 27
-26 21 -19 34 14 28 25 -5 30 -3 30 13 0 31 19 34 30 4 10 -26 11 -26 30 -9
23 21 36 14 25 -12 -4 -10 -8 -29 -9 -43 -1 -33 -31 -39 -39 -8 -6 21 -8 22
-23 7 -33 -33 12 -87 62 -75 57 15 84 93 48 144 -37 54 -128 69 -176 29z m185
-266 c-11 -14 -31 -27 -45 -29 -26 -3 -78 31 -65 44 4 4 13 2 19 -4 26 -26 97
-7 99 26 0 12 2 13 6 3 3 -7 -3 -25 -14 -40z"/>
<path d="M3041 617 c-17 -32 -3 -60 39 -77 17 -7 32 -11 33 -9 2 2 13 17 25
33 30 39 28 52 -10 59 -18 4 -42 9 -53 12 -16 5 -24 0 -34 -18z"/>
<path d="M3371 599 c6 -12 9 -37 6 -55 -5 -30 -4 -33 12 -25 10 6 23 17 30 25
10 12 9 17 -8 25 -11 6 -23 20 -26 31 -3 11 -11 20 -16 20 -6 0 -5 -9 2 -21z"/>
<path d="M2450 602 c0 -4 17 -24 37 -43 l37 -34 -33 43 c-33 42 -41 49 -41 34z"/>
<path d="M1015 578 c-4 -11 1 -27 13 -43 19 -24 20 -24 25 -5 3 11 -3 30 -13
43 -17 20 -19 20 -25 5z"/>
<path d="M1060 511 c0 -13 12 -27 30 -36 17 -9 30 -12 30 -8 0 4 6 0 13 -9 15
-19 57 -30 57 -16 0 6 8 4 18 -5 20 -19 62 -23 62 -7 0 6 10 8 24 4 27 -6 70
12 61 27 -9 14 -47 10 -69 -6 -13 -10 -24 -11 -37 -5 -10 6 -31 10 -48 10 -16
0 -33 5 -36 10 -3 6 -17 10 -30 10 -12 0 -25 6 -28 14 -3 8 -15 20 -26 26 -18
9 -21 8 -21 -9z"/>
<path d="M3020 495 c0 -39 9 -44 34 -16 16 17 15 19 -9 35 l-25 16 0 -35z"/>
<path d="M2620 476 c25 -28 70 -56 90 -56 22 0 -23 58 -49 63 -14 3 -35 9 -46
13 -18 6 -17 4 5 -20z"/>
<path d="M3453 425 c-11 -8 -25 -34 -32 -57 -13 -51 -18 -58 -53 -81 -27 -17
-28 -21 -27 -95 1 -112 5 -126 41 -140 35 -13 53 -6 25 9 -9 6 -17 17 -17 24
0 8 -4 15 -10 15 -15 0 -12 36 4 50 8 6 16 21 18 33 5 35 44 49 123 42 39 -3
85 -5 104 -5 19 0 38 -5 42 -12 4 -7 10 -10 13 -7 10 10 -23 46 -56 62 -26 12
-43 14 -73 7 -22 -5 -51 -9 -65 -9 -22 1 -20 3 15 20 22 10 52 19 67 19 15 0
30 5 34 11 3 6 18 9 33 6 l26 -5 -24 19 c-30 24 -85 24 -119 1 -15 -10 -35
-22 -45 -25 -31 -11 -9 11 38 38 24 14 46 32 49 40 3 8 13 15 21 15 9 0 13 5
10 10 -10 16 -68 12 -94 -6 -22 -16 -23 -16 -12 4 6 11 16 23 23 25 7 3 2 6
-12 6 -14 1 -35 -6 -47 -14z m-56 -152 c-10 -3 -25 -19 -32 -36 -10 -22 -14
-26 -15 -13 0 25 28 56 49 55 12 -1 12 -2 -2 -6z"/>
<path d="M3083 243 c-7 -3 -13 -20 -13 -39 0 -23 -4 -33 -11 -28 -6 3 -9 19
-5 35 3 16 1 29 -4 29 -6 0 -10 -9 -10 -20 0 -12 -11 -32 -25 -45 l-24 -25 32
0 c18 0 37 4 43 9 5 5 27 11 49 13 32 2 40 8 46 28 7 24 7 24 8 3 1 -19 7 -23
35 -23 19 0 37 4 41 10 3 5 12 7 20 3 27 -10 65 6 65 27 0 11 -3 21 -7 21 -20
4 -229 5 -240 2z"/>
</g>
</svg>
