<?xml version="1.0" standalone="no"?>
<!DOCTYPE svg PUBLIC "-//W3C//DTD SVG 20010904//EN"
 "http://www.w3.org/TR/2001/REC-SVG-20010904/DTD/svg10.dtd">
<svg version="1.0" xmlns="http://www.w3.org/2000/svg"
 width="500.000000pt" height="304.000000pt" viewBox="0 0 500.000000 304.000000"
 preserveAspectRatio="xMidYMid meet">

<g transform="translate(0.000000,304.000000) scale(0.100000,-0.100000)"
fill="#000000" stroke="none">
<path d="M2286 2719 c-99 -43 -201 -86 -228 -96 l-48 -17 46 -22 c25 -12 59
-35 75 -50 l28 -27 151 62 151 63 143 -61 c79 -34 146 -61 150 -61 3 0 26 15
51 34 24 19 60 40 79 47 l35 13 -197 84 c-108 46 -210 89 -227 96 -28 12 -42
8 -209 -65z m202 29 c35 -35 -15 -99 -53 -68 -30 25 -12 80 25 80 9 0 21 -5
28 -12z m-144 -67 c23 -25 13 -59 -20 -67 -46 -12 -70 32 -37 68 21 23 36 23
57 -1z m291 3 c20 -20 16 -53 -7 -68 -40 -24 -80 44 -42 71 23 17 29 16 49 -3z
m-431 -76 c15 -24 -3 -52 -37 -56 -33 -4 -53 28 -37 59 14 25 58 23 74 -3z
m586 2 c8 -14 8 -26 0 -40 -19 -35 -80 -20 -80 20 0 40 61 55 80 20z"/>
<path d="M785 2353 l32 -138 35 -3 35 -3 18 88 c10 48 21 92 25 96 4 4 12 -25
19 -65 21 -122 19 -118 57 -118 31 0 34 3 44 43 6 23 22 84 35 134 14 51 25
95 25 98 0 3 -13 5 -29 5 -25 0 -30 -5 -39 -42 -6 -24 -14 -67 -18 -96 -4 -29
-10 -54 -14 -57 -4 -2 -15 41 -24 95 l-18 100 -32 0 -32 0 -18 -92 c-11 -51
-22 -97 -26 -101 -7 -8 -9 -1 -31 126 -11 67 -11 67 -43 67 l-32 0 31 -137z"/>
<path d="M1357 2483 c-4 -3 -7 -66 -7 -140 l0 -133 91 0 c88 0 90 1 87 23 -3
19 -10 22 -60 25 l-58 3 0 34 0 35 56 0 c52 0 55 1 52 23 -3 19 -10 22 -55 25
-51 3 -53 4 -53 33 0 29 1 29 55 29 52 0 55 1 55 25 0 25 -1 25 -78 25 -43 0
-82 -3 -85 -7z"/>
<path d="M1870 2350 l0 -140 86 0 c83 0 85 1 82 23 -3 19 -10 22 -60 25 l-58
3 0 114 0 115 -25 0 -25 0 0 -140z"/>
<path d="M2418 2470 c-64 -34 -87 -140 -43 -206 27 -42 64 -59 127 -58 32 0
60 3 63 5 2 3 2 15 -1 26 -5 18 -11 21 -35 16 -94 -19 -154 101 -84 167 19 18
33 21 69 19 38 -3 46 -1 50 15 3 11 3 23 0 28 -10 16 -108 7 -146 -12z"/>
<path d="M2914 2480 c-11 -4 -33 -22 -47 -40 -35 -41 -38 -127 -7 -178 41 -67
141 -78 203 -22 27 24 31 35 35 92 5 76 -13 120 -58 143 -31 16 -92 19 -126 5z
m115 -77 c31 -67 -3 -153 -60 -153 -53 0 -87 90 -58 154 23 51 95 50 118 -1z"/>
<path d="M3205 2459 c18 -33 31 -37 37 -11 4 14 -3 22 -23 29 l-29 11 15 -29z"/>
<path d="M3347 2483 c-3 -5 -8 -68 -12 -140 l-7 -133 25 0 c24 0 25 2 32 103
8 112 10 111 45 -20 20 -72 26 -83 45 -83 19 0 26 14 56 108 28 89 34 101 36
72 13 -178 13 -180 39 -180 22 0 24 4 24 48 0 27 -3 90 -7 141 l-6 92 -41 -3
-41 -3 -25 -92 c-14 -51 -27 -93 -31 -93 -3 0 -15 43 -28 95 l-23 95 -38 0
c-22 0 -41 -3 -43 -7z"/>
<path d="M3900 2350 l0 -140 91 0 c88 0 90 1 87 23 -3 19 -10 22 -60 25 l-58
3 0 34 0 35 56 0 c52 0 55 1 52 23 -3 19 -10 22 -55 25 -51 3 -53 4 -53 33 0
29 1 29 55 29 52 0 55 1 55 25 0 25 -1 25 -85 25 l-85 0 0 -140z"/>
<path d="M1695 2466 c-15 -11 -17 -18 -9 -26 8 -8 14 -7 23 4 20 24 9 39 -14
22z"/>
<path d="M1160 2228 c-20 -33 -20 -33 0 -42 22 -10 27 -45 8 -64 -18 -18 -46
-15 -60 7 -11 18 -12 18 -45 -1 -18 -11 -33 -28 -33 -37 0 -40 -51 -55 -72
-21 -8 12 -24 20 -39 20 -14 0 -40 5 -57 11 -24 8 -37 7 -60 -5 -30 -15 -31
-15 -61 20 -36 41 -40 36 -10 -13 12 -19 18 -38 13 -42 -5 -4 -99 -45 -209
-91 -110 -46 -218 -92 -239 -102 -60 -31 -135 -107 -169 -173 -29 -56 -31 -67
-31 -170 -1 -103 1 -113 29 -164 16 -29 55 -77 86 -105 61 -55 70 -59 494
-236 116 -48 300 -126 410 -173 354 -150 1046 -446 1198 -512 l149 -65 471
201 c260 111 564 241 677 289 113 48 356 152 540 230 477 202 488 208 536 242
50 35 92 85 125 148 21 39 24 58 23 150 0 125 -17 172 -91 251 -59 63 -92 82
-273 159 -219 92 -290 124 -290 132 0 4 11 24 25 44 14 20 25 44 25 53 0 10
-5 8 -17 -9 -9 -14 -27 -37 -41 -52 -23 -25 -27 -26 -52 -13 -21 11 -36 12
-61 5 -19 -6 -45 -10 -59 -10 -14 0 -31 -9 -38 -20 -19 -31 -51 -25 -67 13
-18 44 -60 64 -86 41 -22 -20 -56 -11 -65 18 -5 16 0 27 16 40 l22 18 -22 30
c-26 36 -33 37 -48 6 -6 -14 -27 -43 -47 -65 l-37 -40 29 -7 c84 -19 923 -380
967 -416 81 -66 100 -169 46 -250 -49 -73 -47 -73 -545 -283 -88 -37 -205 -87
-260 -110 -425 -181 -1023 -434 -1227 -519 -86 -36 -165 -66 -176 -66 -10 0
-54 15 -98 34 -43 19 -140 60 -214 91 -74 31 -268 113 -430 182 -162 68 -367
155 -455 193 -684 289 -906 387 -945 414 -81 58 -112 153 -77 237 26 63 89
106 267 181 91 38 208 87 260 110 267 114 471 198 495 204 l26 7 -29 31 c-16
17 -38 46 -48 64 -10 17 -22 32 -26 32 -5 0 -17 -15 -28 -32z m-285 -178 c20
-22 15 -44 -13 -59 -41 -22 -85 45 -44 68 25 15 37 13 57 -9z m3226 10 c39
-21 13 -75 -33 -68 -26 3 -37 41 -18 64 15 17 25 18 51 4z m-3377 -66 c9 -8
16 -22 16 -29 0 -16 -27 -45 -42 -45 -16 0 -48 31 -48 46 0 17 28 44 45 44 7
0 21 -7 29 -16z m3530 0 c9 -8 16 -20 16 -26 0 -15 -30 -48 -43 -48 -15 0 -47
31 -47 46 0 17 28 44 45 44 7 0 21 -7 29 -16z m-3683 -54 c37 -20 15 -87 -27
-78 -9 2 -23 13 -31 25 -13 19 -12 24 6 42 24 24 26 24 52 11z m3830 -11 c18
-18 19 -23 6 -42 -21 -33 -54 -34 -68 -3 -10 22 -9 29 6 46 23 25 30 25 56 -1z
m-3961 -69 c8 -14 8 -26 0 -40 -19 -35 -80 -20 -80 20 0 40 61 55 80 20z
m4110 5 c15 -18 10 -45 -12 -59 -33 -20 -69 20 -54 60 7 18 50 18 66 -1z
m-4254 -81 c16 -24 16 -26 -4 -46 -18 -19 -25 -20 -47 -10 -43 20 -27 80 22
82 7 0 20 -12 29 -26z m4385 16 c28 -16 25 -58 -6 -72 -19 -8 -28 -8 -40 2
-20 17 -19 57 3 69 21 13 20 13 43 1z m-4483 -132 c34 -34 -6 -90 -48 -68 -35
19 -20 80 20 80 9 0 21 -5 28 -12z m4580 0 c34 -34 -6 -90 -48 -68 -35 19 -20
80 20 80 9 0 21 -5 28 -12z m-4573 -188 c0 -30 -4 -35 -26 -38 -33 -4 -53 20
-45 53 6 22 11 26 39 23 29 -3 32 -6 32 -38z m4583 3 c3 -28 -1 -33 -23 -39
-29 -7 -55 10 -55 35 0 25 22 42 50 39 20 -2 26 -9 28 -35z m-4509 -93 c40
-21 31 -80 -12 -80 -44 0 -61 38 -30 72 19 21 19 21 42 8z m4416 -34 c0 -52
-63 -62 -73 -12 -7 33 6 47 40 44 29 -3 33 -7 33 -32z m-4259 -61 c16 -24 16
-27 -1 -45 -32 -35 -75 -19 -75 27 0 21 23 42 47 43 7 0 20 -11 29 -25z m4105
15 c28 -16 25 -58 -6 -72 -19 -8 -28 -8 -40 2 -20 17 -19 57 3 69 21 13 20 13
43 1z m-3967 -63 c22 -16 18 -55 -6 -71 -40 -24 -80 44 -42 71 10 7 21 13 24
13 3 0 14 -6 24 -13z m3836 -18 c13 -23 13 -25 -6 -43 -24 -24 -53 -19 -66 10
-11 23 -10 29 10 45 25 20 48 16 62 -12z m-3676 -61 c15 -25 -3 -52 -37 -56
-34 -4 -58 38 -37 63 17 20 59 16 74 -7z m3526 2 c15 -28 -4 -60 -35 -60 -14
0 -29 8 -35 20 -15 28 4 60 35 60 14 0 29 -8 35 -20z m-3378 -66 c11 -23 10
-29 -10 -44 -28 -23 -60 -15 -68 16 -13 53 56 77 78 28z m3228 11 c7 -9 10
-25 6 -40 -6 -22 -11 -26 -39 -23 -25 2 -33 8 -35 26 -7 44 41 70 68 37z
m-3092 -57 c34 -34 -6 -90 -48 -68 -35 19 -20 80 20 80 9 0 21 -5 28 -12z
m2940 0 c18 -18 14 -56 -7 -68 -26 -14 -50 -3 -57 26 -11 42 34 72 64 42z
m-2797 -58 c23 -13 25 -52 4 -70 -20 -17 -61 -5 -68 19 -5 21 17 61 34 61 6 0
19 -5 30 -10z m2653 -9 c31 -34 0 -80 -45 -66 -27 9 -34 43 -13 66 9 10 22 19
29 19 7 0 20 -9 29 -19z m-2488 -76 c9 -22 -15 -55 -39 -55 -47 0 -63 48 -25
74 23 16 54 7 64 -19z m2342 13 c30 -30 0 -75 -43 -64 -19 5 -25 13 -25 35 0
15 3 31 7 34 11 11 48 8 61 -5z m-2214 -54 c22 -8 21 -61 -1 -72 -27 -15 -63
3 -63 31 0 38 27 55 64 41z m2066 -8 c6 -8 10 -25 8 -38 -2 -19 -9 -23 -38
-23 -29 0 -36 4 -38 23 -4 28 14 52 38 52 10 0 23 -7 30 -14z m-1912 -58 c16
-16 15 -53 -3 -68 -19 -16 -45 -10 -61 15 -26 39 31 86 64 53z m1767 -8 c17
-18 17 -21 1 -45 -9 -14 -23 -25 -31 -25 -17 0 -45 27 -45 45 0 17 27 45 44
45 7 0 21 -9 31 -20z m-1621 -56 c19 -18 20 -28 6 -55 -16 -28 -58 -25 -72 6
-9 21 -8 28 7 45 22 24 38 25 59 4z m1471 -4 c38 -42 -19 -94 -59 -54 -21 20
-20 30 4 54 25 25 32 25 55 0z m-1315 -70 c8 -14 8 -26 0 -40 -19 -35 -80 -20
-80 20 0 40 61 55 80 20z m1170 5 c15 -18 10 -45 -12 -59 -33 -20 -69 20 -54
60 7 18 50 18 66 -1z m-1030 -59 c6 -8 10 -25 8 -38 -2 -19 -9 -23 -38 -23
-31 0 -35 3 -38 29 -5 42 41 64 68 32z m878 5 c8 -5 12 -21 10 -37 -3 -32 -38
-45 -64 -24 -40 34 9 90 54 61z m-730 -63 c34 -34 -6 -90 -48 -68 -11 6 -20
12 -20 15 0 2 -3 10 -6 18 -12 32 48 61 74 35z m586 -4 c22 -21 20 -40 -6 -58
-19 -13 -25 -14 -43 -2 -26 18 -30 40 -10 60 21 20 39 20 59 0z m-440 -63 c34
-38 -8 -86 -54 -61 -24 13 -26 43 -4 64 21 21 37 20 58 -3z m287 9 c28 -16 25
-58 -6 -72 -19 -8 -28 -8 -40 2 -20 17 -19 57 3 69 21 13 20 13 43 1z m-136
-95 c0 -55 -65 -59 -73 -5 -5 30 22 51 51 41 15 -6 22 -17 22 -36z"/>
<path d="M2975 1760 c-3 -5 -1 -10 4 -10 6 0 11 5 11 10 0 6 -2 10 -4 10 -3 0
-8 -4 -11 -10z"/>
<path d="M2950 1690 c0 -5 5 -10 11 -10 5 0 7 5 4 10 -3 6 -8 10 -11 10 -2 0
-4 -4 -4 -10z"/>
<path d="M3108 1618 c-14 -12 -58 -127 -58 -154 0 -19 32 -26 48 -11 11 12 11
18 1 35 -10 17 -10 24 4 46 10 14 24 26 32 26 16 0 31 43 20 59 -8 15 -28 14
-47 -1z m32 -22 c0 -16 -28 -42 -36 -33 -3 3 -3 15 1 26 7 23 35 29 35 7z
m-57 -111 c4 -8 2 -17 -3 -20 -6 -4 -10 3 -10 14 0 25 6 27 13 6z"/>
<path d="M3388 1618 c-18 -15 -31 -48 -19 -48 5 0 11 9 14 20 7 26 37 26 37 1
0 -13 -11 -24 -34 -32 -28 -10 -36 -20 -47 -57 -10 -37 -10 -45 2 -53 19 -12
25 -11 38 5 9 11 9 19 0 34 -10 17 -10 25 4 46 10 14 24 26 32 26 16 0 31 43
20 59 -8 15 -28 14 -47 -1z m-31 -150 c-3 -8 -6 -5 -6 6 -1 11 2 17 5 13 3 -3
4 -12 1 -19z"/>
<path d="M3657 1599 c-4 -16 -3 -18 9 -8 11 9 14 7 14 -10 0 -29 -27 -91 -39
-91 -6 0 -8 14 -6 33 l5 32 -14 -30 c-9 -16 -15 -35 -16 -42 0 -21 21 -26 39
-9 20 18 55 121 46 136 -11 17 -32 11 -38 -11z"/>
<path d="M3217 1535 c-21 -43 -21 -45 -2 -45 17 0 55 35 55 51 0 6 -7 3 -16
-5 -21 -21 -22 -20 -16 9 6 35 -1 31 -21 -10z"/>
<path d="M3497 1533 c-19 -44 -16 -50 18 -35 26 12 36 38 10 28 -12 -4 -14 0
-9 19 9 36 1 31 -19 -12z"/>
<path d="M3750 1468 c0 -24 14 -30 36 -13 18 14 18 15 0 9 -11 -4 -22 -1 -27
7 -7 11 -9 11 -9 -3z"/>
</g>
</svg>
